<svg xmlns="http://www.w3.org/2000/svg" version="1.1" xmlns:xlink="http://www.w3.org/1999/xlink" xmlns:svgjs="http://svgjs.dev/svgjs" width="1000" height="623" viewBox="0 0 1000 623"><g transform="matrix(1,0,0,1,-0.6060606060606233,0.2522267206477409)"><svg viewBox="0 0 396 247" data-background-color="#0c1d36" preserveAspectRatio="xMidYMid meet" height="623" width="1000" xmlns="http://www.w3.org/2000/svg" xmlns:xlink="http://www.w3.org/1999/xlink"><g id="tight-bounds" transform="matrix(1,0,0,1,0.2400000000000091,-0.09999999999999432)"><svg viewBox="0 0 395.52 247.2" height="247.2" width="395.52"><g><svg></svg></g><g><svg viewBox="0 0 395.52 247.2" height="247.2" width="395.52"><g transform="matrix(1,0,0,1,98.50308702213275,47.215199999999996)"><svg viewBox="0 0 198.5138259557345 152.7696" height="152.7696" width="198.5138259557345"><g><svg viewBox="0 0 198.5138259557345 152.7696" height="152.7696" width="198.5138259557345"><g><svg viewBox="0 0 244.43135999999998 188.1061982200807" height="152.7696" width="198.5138259557345"><g><svg viewBox="0 0 244.43135999999998 188.1061982200807" height="188.1061982200807" width="244.43135999999998"><g><svg viewBox="0 0 244.43135999999998 188.1061982200807" height="188.1061982200807" width="244.43135999999998"><g><svg viewBox="0 0 244.43135999999998 115.53675355571326" height="115.53675355571326" width="244.43135999999998"><g transform="matrix(1,0,0,1,0,0)"><svg width="244.43135999999998" viewBox="1.1700000762939453 -32.31999969482422 68.80000305175781 32.52000045776367" height="115.53675355571326" data-palette-color="#f9cc0b"><path d="M9.86-32.03L9.86-32.03Q11.13-32.03 16.5-32.32L16.5-32.32Q16.55-32.13 16.55-31.42 16.55-30.71 16.41-30.71L16.41-30.71Q15.58-30.71 14.6-30.4 13.62-30.08 13.62-29.39L13.62-29.39Q13.62-28.91 14.11-28.13L14.11-28.13 19.63-19.78Q20.07-20.36 21.24-21.83 22.41-23.29 23.12-24.19 23.83-25.1 24.66-26.22 25.49-27.34 25.93-28.1 26.37-28.86 26.37-29.2L26.37-29.2Q26.37-29.74 25.27-30.22 24.17-30.71 22.85-30.71L22.85-30.71Q22.66-30.71 22.63-31.42 22.61-32.13 22.8-32.32L22.8-32.32Q27.78-32.03 28.91-32.03L28.91-32.03Q29.54-32.03 34.91-32.32L34.91-32.32Q35.01-32.13 35.01-31.42 35.01-30.71 34.86-30.71L34.86-30.71Q34.13-30.71 32.54-30.3 30.96-29.88 30.32-29.05L30.32-29.05 21.14-17.43Q30.27-3.76 30.47-3.47L30.47-3.47Q31.25-2.44 32.59-1.95 33.94-1.46 34.96-1.46L34.96-1.46Q35.16-1.46 35.16-0.49L35.16-0.49Q35.16-0.1 35.06 0.2L35.06 0.2Q29.69-0.1 28.91-0.1L28.91-0.1Q27.69-0.1 26.51-0.05 25.34 0 23.88 0.07 22.41 0.15 21.48 0.2L21.48 0.2Q21.29 0 21.31-0.73 21.34-1.46 21.53-1.46L21.53-1.46Q22.17-1.46 23.24-1.83 24.32-2.2 24.32-2.83L24.32-2.83Q24.32-3.08 24.12-3.37L24.12-3.37 17.29-13.77Q9.86-3.86 9.86-2.93L9.86-2.93Q9.86-2.39 10.86-1.93 11.87-1.46 13.33-1.46L13.33-1.46Q13.57-1.46 13.57-0.54L13.57-0.54Q13.57 0 13.48 0.2L13.48 0.2Q8.74-0.1 7.47-0.1L7.47-0.1Q6.74-0.1 1.37 0.2L1.37 0.2Q1.17-0.24 1.17-0.49L1.17-0.49Q1.17-1.46 1.37-1.46L1.37-1.46Q2.05-1.46 3.54-1.83 5.03-2.2 5.66-2.93L5.66-2.93 15.63-16.26 8.94-26.46Q7.18-29.25 6.01-29.98L6.01-29.98Q4.83-30.71 3.32-30.71L3.32-30.71Q3.17-30.71 3.17-31.42 3.17-32.13 3.32-32.32L3.32-32.32Q4.2-32.28 5.44-32.2 6.69-32.13 7.74-32.08 8.79-32.03 9.86-32.03ZM44.63-32.13L44.63-32.13Q44.63-32.13 53.07-32.13L53.07-32.13Q61.03-32.13 65.5-27.44 69.97-22.75 69.97-16.41L69.97-16.41Q69.97-9.38 65.45-4.61 60.94 0.15 53.02 0.15L53.02 0.15Q52 0.15 49 0.05 45.99-0.05 44.68-0.05L44.68-0.05 38.18 0.15Q38.03 0 38.03-0.63L38.03-0.63Q38.03-1.46 38.18-1.46L38.18-1.46Q38.82-1.46 40.04-1.78 41.26-2.1 41.45-2.54L41.45-2.54Q41.79-3.56 41.79-6.98L41.79-6.98 41.79-25.44Q41.79-28.37 41.45-29.44L41.45-29.44Q41.31-29.98 40.09-30.32 38.86-30.66 38.13-30.66L38.13-30.66Q37.94-30.66 37.94-31.4L37.94-31.4Q37.94-32.08 38.13-32.28L38.13-32.28Q41.35-32.13 44.63-32.13ZM47.31-25.88L47.31-25.88 47.31-6.74Q47.31-4 47.85-3.13L47.85-3.13Q48.63-2.34 53.81-2.34L53.81-2.34Q63.72-2.34 63.72-16.6L63.72-16.6Q63.72-22.07 61.06-25.88 58.4-29.69 53.46-29.69L53.46-29.69 53.22-29.69Q48.53-29.69 47.95-28.91L47.95-28.91Q47.31-28.03 47.31-25.88Z" opacity="1" transform="matrix(1,0,0,1,0,0)" fill="#f9cc0b" class="undefined-text-0" data-fill-palette-color="primary" id="text-0"></path></svg></g></svg></g><g transform="matrix(1,0,0,1,0,142.81220818813182)"><svg viewBox="0 0 244.43135999999998 45.29399003194887" height="45.29399003194887" width="244.43135999999998"><g transform="matrix(1,0,0,1,0,0)"><svg width="244.43135999999998" viewBox="2.5 -37.5 203.4499969482422 37.70000076293945" height="45.29399003194887" data-palette-color="#f9cc0b"><path d="M21.25-32.25L8.95-32.25 8.95-18.85 19.85-18.85 19.85-22 22.6-22 22.6-13.4 19.85-13.4 19.85-16.1 8.95-16.1 8.95-2.75 12.6-2.75 12.6 0 2.5 0 2.5-2.75 5.55-2.75 5.55-32.25 2.5-32.25 2.5-35 23.75-35 23.7-34.7 24.35-27.8 21.85-27.4 21.25-32.25ZM32.15-16.75L32.15-2.5 36.3-2.5 36.3 0 25.8 0 25.8-2.5 28.9-2.5 28.9-22.5 25.55-22.5 25.55-25 32.15-25 32.15-18.95Q36.1-24.75 39.9-24.85L39.9-24.85Q40.2-24.85 40.5-24.85L40.5-24.85 43.3-24.5 42-21.5Q41.05-21.95 39.55-21.95L39.55-21.95Q35.95-21.9 32.15-16.75L32.15-16.75ZM48-11.2L48-11.2Q48-6.75 50.55-4.73 53.1-2.7 56.5-2.7L56.5-2.7Q58.7-2.7 61.03-3.13 63.35-3.55 64.1-3.9L64.1-3.9 64.75-1.55Q63.6-0.8 60.98-0.3 58.35 0.2 56.18 0.2 54 0.2 52.28-0.25 50.55-0.7 48.75-1.85 46.95-3 45.9-5.45 44.85-7.9 44.85-11.45L44.85-11.45Q44.85-18.05 48.25-21.55L48.25-21.55Q51.8-25.2 56.5-25.2 61.2-25.2 63.68-22.6 66.15-20 66.15-15.3L66.15-15.3Q66.15-14.3 66-13.15L66-13.15 48.15-13.15Q48-12.1 48-11.2ZM63.15-15.65L63.15-15.65Q63.15-18.75 61.3-20.43 59.45-22.1 57-22.1L57-22.1Q53.65-22.1 51.45-20.08 49.25-18.05 48.5-15.1L48.5-15.1 63.15-15.1Q63.15-15.4 63.15-15.65ZM73.3-11.2L73.3-11.2Q73.3-6.75 75.85-4.73 78.4-2.7 81.8-2.7L81.8-2.7Q84-2.7 86.33-3.13 88.65-3.55 89.4-3.9L89.4-3.9 90.05-1.55Q88.9-0.8 86.28-0.3 83.65 0.2 81.48 0.2 79.3 0.2 77.58-0.25 75.85-0.7 74.05-1.85 72.25-3 71.2-5.45 70.15-7.9 70.15-11.45L70.15-11.45Q70.15-18.05 73.55-21.55L73.55-21.55Q77.1-25.2 81.8-25.2 86.5-25.2 88.98-22.6 91.45-20 91.45-15.3L91.45-15.3Q91.45-14.3 91.3-13.15L91.3-13.15 73.45-13.15Q73.3-12.1 73.3-11.2ZM88.45-15.65L88.45-15.65Q88.45-18.75 86.6-20.43 84.75-22.1 82.3-22.1L82.3-22.1Q78.95-22.1 76.75-20.08 74.55-18.05 73.8-15.1L73.8-15.1 88.45-15.1Q88.45-15.4 88.45-15.65ZM98.55-35L95.2-35 95.2-37.5 101.8-37.5 101.8-2.5 105.55-2.5 105.55 0 95.45 0 95.45-2.5 98.55-2.5 98.55-35ZM114.65 0.2L114.65 0.2Q108 0.2 107.6-5.05L107.6-5.05Q107.55-5.4 107.55-5.75L107.55-5.75Q107.55-9.95 112.6-11.35L112.6-11.35Q115.4-12.05 123.4-12.95L123.4-12.95 123.4-16.8Q123.4-22.25 117.7-22.25L117.7-22.25Q113.6-22.2 109-20.35L109-20.35 108.15-22.5 108.65-22.7Q112.55-24.4 114.6-24.75 116.65-25.1 117.6-25.13 118.55-25.15 119.43-25.1 120.3-25.05 121.7-24.65 123.1-24.25 124.13-23.53 125.15-22.8 125.9-21.35 126.65-19.9 126.65-17.9L126.65-17.9 126.65-2.5 130.5-2.5 130.5 0 123.9 0 123.4-1.9Q118.9 0.2 114.65 0.2ZM115.55-2.1L115.55-2.1Q119.35-2.1 123.4-3.8L123.4-3.8 123.4-10.95Q115.9-10.7 113.7-9.95L113.7-9.95Q112-9.5 111.3-8.33 110.6-7.15 110.6-6.45 110.6-5.75 110.6-5.5L110.6-5.5Q110.75-3.7 112.15-2.9 113.55-2.1 115.55-2.1ZM135.85-22.5L132.5-22.5 132.5-25 139.1-25 139.1-22.2Q143.2-25 146.95-25.15L146.95-25.15Q150.6-25.15 152.5-23.7L152.5-23.7Q153.35-23.05 154.03-21.68 154.7-20.3 154.7-18.4L154.7-18.4 154.7-2.5 158.55-2.5 158.55 0 148.45 0 148.45-2.5 151.45-2.5 151.45-17.15Q151.45-22 145.75-22L145.75-22Q142.65-21.9 139.1-19.95L139.1-19.95 139.1-2.5 142.85-2.5 142.85 0 132.75 0 132.75-2.5 135.85-2.5 135.85-22.5ZM173.5-22.3L173.5-22.3Q169.25-22.3 166.63-19.48 164-16.65 164-11.55L164-11.55Q164-2.7 172.25-2.7L172.25-2.7Q175.45-2.7 177.6-3.23 179.75-3.75 179.95-3.9L179.95-3.9 180.65-1.55Q179.5-0.8 176.85-0.3 174.2 0.2 172.05 0.2 169.9 0.2 168.15-0.25 166.4-0.7 164.63-1.85 162.85-3 161.8-5.48 160.75-7.95 160.75-11.5L160.75-11.5Q160.75-18.05 164.1-21.4L164.1-21.4Q167.85-25.25 173.55-25.25L173.55-25.25Q175.35-25.25 177.38-24.78 179.4-24.3 180.5-23.3L180.5-23.3 180.5-16.75 178.05-16.4 177.8-21.65Q175.75-22.3 173.5-22.3ZM187.8-11.2L187.8-11.2Q187.8-6.75 190.35-4.73 192.9-2.7 196.3-2.7L196.3-2.7Q198.5-2.7 200.83-3.13 203.15-3.55 203.9-3.9L203.9-3.9 204.55-1.55Q203.4-0.8 200.78-0.3 198.15 0.2 195.97 0.2 193.8 0.2 192.08-0.25 190.35-0.7 188.55-1.85 186.75-3 185.7-5.45 184.65-7.9 184.65-11.45L184.65-11.45Q184.65-18.05 188.05-21.55L188.05-21.55Q191.6-25.2 196.3-25.2 201-25.2 203.48-22.6 205.95-20 205.95-15.3L205.95-15.3Q205.95-14.3 205.8-13.15L205.8-13.15 187.95-13.15Q187.8-12.1 187.8-11.2ZM202.95-15.65L202.95-15.65Q202.95-18.75 201.1-20.43 199.25-22.1 196.8-22.1L196.8-22.1Q193.45-22.1 191.25-20.08 189.05-18.05 188.3-15.1L188.3-15.1 202.95-15.1Q202.95-15.4 202.95-15.65Z" opacity="1" transform="matrix(1,0,0,1,0,0)" fill="#f9cc0b" class="undefined-text-1" data-fill-palette-color="secondary" id="text-1"></path></svg></g></svg></g></svg></g></svg></g></svg></g></svg></g></svg></g><path d="M120.031 41.215L120.031 0 367.231 0 367.231 247.2 120.031 247.2 120.031 205.985 128.493 205.985 128.493 238.738 358.769 238.738 358.769 8.462 128.493 8.462 128.493 41.215Z" fill="#f9cc0b" stroke="transparent" data-fill-palette-color="primary"></path></svg></g><defs></defs></svg><rect width="395.52" height="247.2" fill="none" stroke="none" visibility="hidden"></rect></g></svg></g></svg>